REM MD5 4dda89cac1a8e9900e13b58c005a9873
FILE "Ayrton Senna KartDuel 2 (Japan).bin" BINARY
  TRACK 01 MODE2/2352
    INDEX 01 00:00:00
  TRACK 02 AUDIO
    INDEX 00 11:01:26
    INDEX 01 11:03:26
  TRACK 03 AUDIO
    INDEX 00 13:03:32
    INDEX 01 13:05:32
  TRACK 04 AUDIO
    INDEX 00 15:05:34
    INDEX 01 15:07:34
  TRACK 05 AUDIO
    INDEX 00 17:07:37
    INDEX 01 17:09:37
  TRACK 06 AUDIO
    INDEX 00 19:10:39
    INDEX 01 19:12:39
REM LEADOUT 22:40:47
